<?xml version="1.0" standalone="no"?>
<!DOCTYPE svg PUBLIC "-//W3C//DTD SVG 20010904//EN"
        "http://www.w3.org/TR/2001/REC-SVG-20010904/DTD/svg10.dtd">
<svg version="1.0" xmlns="http://www.w3.org/2000/svg"
     width="900.000000pt" height="380.000000pt" viewBox="0 0 900.000000 380.000000"
     preserveAspectRatio="xMidYMid meet">
    <metadata>
        Created by potrace 1.10, written by Peter Selinger 2001-2011
    </metadata>
    <g transform="translate(0.000000,380.000000) scale(0.100000,-0.100000)"
       fill="#000000" stroke="none">
        <path d="M1873 2889 c-79 -57 -110 -136 -88 -221 21 -83 64 -126 147 -149 38
-11 56 -11 95 -1 58 15 79 30 121 89 27 38 32 53 32 103 0 124 -82 208 -203
208 -55 0 -70 -4 -104 -29z"/>
        <path d="M470 2629 c-15 -28 -13 -203 3 -224 11 -15 58 -17 493 -19 l481 -3
36 -28 c41 -31 55 -78 41 -130 -7 -23 -22 -37 -59 -56 -49 -25 -55 -26 -282
-29 l-233 -3 0 -123 0 -123 138 -13 c222 -21 318 -49 527 -157 17 -9 68 -55
115 -102 118 -119 167 -222 190 -396 6 -44 14 -83 19 -88 4 -4 59 -6 122 -5
l114 3 3 55 c4 59 -19 190 -50 283 -17 54 -26 75 -49 117 -5 8 -15 29 -22 45
-15 32 -85 124 -126 166 -43 43 -154 126 -199 149 -55 29 -61 44 -29 78 14 15
38 52 54 82 36 72 45 199 18 264 -36 86 -52 109 -103 156 -59 55 -92 74 -177
101 -56 17 -95 19 -537 19 -462 0 -478 -1 -488 -19z"/>
        <path d="M5330 2637 c-14 -6 -43 -14 -65 -19 -132 -28 -281 -125 -370 -240
-104 -135 -165 -320 -165 -501 0 -126 60 -356 106 -410 8 -8 14 -20 14 -26 0
-17 126 -149 178 -186 47 -34 95 -61 162 -90 145 -63 416 -74 596 -23 225 63
408 240 480 463 20 63 43 204 44 269 0 61 -24 226 -41 274 -76 219 -214 366
-419 447 -107 42 -174 53 -335 52 -88 0 -171 -5 -185 -10z m372 -249 c180 -63
282 -178 329 -370 37 -148 13 -310 -65 -448 -37 -65 -154 -160 -236 -191 -77
-29 -225 -39 -331 -22 -129 21 -277 125 -333 233 -51 98 -66 162 -66 293 0 85
5 135 16 170 58 176 151 272 329 339 64 24 285 22 357 -4z"/>
        <path d="M6825 2631 c-194 -50 -310 -140 -364 -283 -30 -79 -29 -226 1 -307
53 -140 213 -232 456 -263 40 -5 76 -11 81 -14 5 -3 44 -10 87 -15 146 -19
230 -49 283 -103 28 -29 31 -37 31 -97 0 -119 -60 -170 -230 -197 -186 -29
-416 -4 -599 65 -30 11 -58 18 -62 15 -5 -3 -9 -59 -9 -124 l0 -120 40 -20
c21 -11 49 -20 60 -20 12 0 30 -4 40 -10 33 -18 241 -40 370 -40 371 1 575
109 641 340 45 155 4 315 -104 411 -89 80 -218 117 -582 169 -106 15 -193 50
-234 94 -32 34 -39 127 -14 176 21 40 78 80 143 99 74 23 357 26 465 6 50 -10
106 -23 125 -30 19 -7 51 -18 70 -25 19 -7 46 -13 60 -14 l25 -1 3 108 c1 59
-2 115 -7 126 -11 19 -90 47 -217 75 -99 22 -472 21 -559 -1z"/>
        <path d="M2510 2625 c-49 -14 -96 -51 -128 -100 l-27 -41 0 -605 0 -606 23
-38 c30 -48 74 -81 135 -101 41 -14 111 -16 497 -16 398 0 450 2 465 16 13 13
15 35 13 118 l-3 101 -429 3 c-297 1 -433 6 -443 13 -10 9 -13 52 -13 188 0
97 4 182 9 189 6 10 83 13 369 12 348 0 361 0 372 19 11 21 14 179 4 205 -5
14 -47 16 -364 16 -313 0 -361 2 -374 16 -13 13 -16 43 -16 177 0 89 3 172 6
185 l6 22 427 0 c319 0 430 3 439 12 15 15 16 181 2 209 -10 18 -26 19 -473
18 -292 -1 -475 -5 -497 -12z"/>
        <path d="M3657 2631 c-4 -3 -7 -310 -7 -680 0 -643 1 -676 19 -711 27 -53 60
-79 124 -102 53 -19 83 -20 476 -20 410 0 421 0 431 20 6 12 10 61 8 118 l-3
97 -389 3 c-267 1 -393 6 -403 13 -11 9 -13 125 -13 624 0 338 -3 620 -6 629
-5 13 -25 16 -118 16 -62 0 -116 -3 -119 -7z"/>
    </g>
</svg>